<mxfile host="Electron" modified="2024-06-21T21:59:11.346Z" agent="Mozilla/5.0 (Windows NT 10.0; Win64; x64) AppleWebKit/537.36 (KHTML, like Gecko) draw.io/24.5.3 Chrome/124.0.6367.207 Electron/30.0.6 Safari/537.36" etag="6WKIw-bW9Q53r9iwawhb" version="24.5.3" type="device">
  <diagram name="PÃ¡gina-1" id="xS8gZd3216MRgp404th8">
    <mxGraphModel dx="822" dy="587" grid="1" gridSize="10" guides="1" tooltips="1" connect="1" arrows="1" fold="1" page="1" pageScale="1" pageWidth="827" pageHeight="1169" math="0" shadow="0">
      <root>
        <mxCell id="0" />
        <mxCell id="1" parent="0" />
        <mxCell id="oiIYRZSaRRJ06C-SAHx--39" value="Local Private Network" style="rounded=1;whiteSpace=wrap;html=1;arcSize=5;align=right;verticalAlign=top;horizontal=1;fontSize=11;spacingRight=9;fillColor=none;dashed=1;strokeColor=#666666;" vertex="1" parent="1">
          <mxGeometry x="164" y="100" width="556" height="400" as="geometry" />
        </mxCell>
        <mxCell id="oiIYRZSaRRJ06C-SAHx--32" value="" style="rounded=1;whiteSpace=wrap;html=1;arcSize=5;align=right;verticalAlign=top;horizontal=1;fontSize=11;spacingRight=9;" vertex="1" parent="1">
          <mxGeometry x="204" y="210" width="200" height="230" as="geometry" />
        </mxCell>
        <mxCell id="oiIYRZSaRRJ06C-SAHx--31" value="" style="rounded=1;whiteSpace=wrap;html=1;arcSize=5;align=right;verticalAlign=top;horizontal=1;fontSize=11;spacingRight=9;" vertex="1" parent="1">
          <mxGeometry x="194" y="220" width="200" height="230" as="geometry" />
        </mxCell>
        <mxCell id="oiIYRZSaRRJ06C-SAHx--2" value="Camera" style="rounded=1;whiteSpace=wrap;html=1;arcSize=5;align=right;verticalAlign=top;horizontal=1;fontSize=11;spacingRight=9;" vertex="1" parent="1">
          <mxGeometry x="184" y="230" width="200" height="230" as="geometry" />
        </mxCell>
        <mxCell id="oiIYRZSaRRJ06C-SAHx--4" value="Users" style="image;aspect=fixed;perimeter=ellipsePerimeter;html=1;align=center;shadow=0;dashed=0;spacingTop=3;image=img/lib/active_directory/users.svg;" vertex="1" parent="1">
          <mxGeometry x="100" y="330" width="33" height="50" as="geometry" />
        </mxCell>
        <mxCell id="oiIYRZSaRRJ06C-SAHx--13" value="*SAC" style="edgeStyle=orthogonalEdgeStyle;rounded=0;orthogonalLoop=1;jettySize=auto;html=1;endArrow=none;endFill=0;" edge="1" parent="1" source="oiIYRZSaRRJ06C-SAHx--5">
          <mxGeometry x="-0.3122" y="15" relative="1" as="geometry">
            <mxPoint x="284" y="200" as="targetPoint" />
            <mxPoint as="offset" />
          </mxGeometry>
        </mxCell>
        <mxCell id="oiIYRZSaRRJ06C-SAHx--5" value="Administrator" style="image;aspect=fixed;perimeter=ellipsePerimeter;html=1;align=center;shadow=0;dashed=0;spacingTop=3;image=img/lib/active_directory/writer.svg;" vertex="1" parent="1">
          <mxGeometry x="418" y="120" width="48" height="50" as="geometry" />
        </mxCell>
        <mxCell id="oiIYRZSaRRJ06C-SAHx--6" value="" style="image;points=[];aspect=fixed;html=1;align=center;shadow=0;dashed=0;image=img/lib/allied_telesis/security/Surveillance_Camera_Ceiling.svg;" vertex="1" parent="1">
          <mxGeometry x="194" y="230" width="21.02" height="20" as="geometry" />
        </mxCell>
        <mxCell id="oiIYRZSaRRJ06C-SAHx--28" value="New" style="edgeStyle=orthogonalEdgeStyle;rounded=0;orthogonalLoop=1;jettySize=auto;html=1;exitX=0.25;exitY=0;exitDx=0;exitDy=0;startArrow=classic;startFill=1;endArrow=none;endFill=0;horizontal=0;align=left;" edge="1" parent="1" source="oiIYRZSaRRJ06C-SAHx--7">
          <mxGeometry x="-0.8182" y="10" relative="1" as="geometry">
            <mxPoint x="284" y="200" as="targetPoint" />
            <Array as="points">
              <mxPoint x="244" y="200" />
            </Array>
            <mxPoint as="offset" />
          </mxGeometry>
        </mxCell>
        <mxCell id="oiIYRZSaRRJ06C-SAHx--29" value="Update" style="edgeStyle=orthogonalEdgeStyle;rounded=0;orthogonalLoop=1;jettySize=auto;html=1;exitX=0.5;exitY=0;exitDx=0;exitDy=0;startArrow=classic;startFill=1;endArrow=none;endFill=0;align=left;horizontal=0;" edge="1" parent="1" source="oiIYRZSaRRJ06C-SAHx--7">
          <mxGeometry x="-0.7158" y="10" relative="1" as="geometry">
            <mxPoint x="283.8571428571428" y="200" as="targetPoint" />
            <mxPoint as="offset" />
          </mxGeometry>
        </mxCell>
        <mxCell id="oiIYRZSaRRJ06C-SAHx--30" value="Delete" style="edgeStyle=orthogonalEdgeStyle;rounded=0;orthogonalLoop=1;jettySize=auto;html=1;exitX=0.75;exitY=0;exitDx=0;exitDy=0;startArrow=classic;startFill=1;endArrow=none;endFill=0;align=left;horizontal=0;" edge="1" parent="1" source="oiIYRZSaRRJ06C-SAHx--7">
          <mxGeometry x="-0.8182" y="10" relative="1" as="geometry">
            <mxPoint x="284" y="200" as="targetPoint" />
            <Array as="points">
              <mxPoint x="324" y="200" />
            </Array>
            <mxPoint as="offset" />
          </mxGeometry>
        </mxCell>
        <mxCell id="oiIYRZSaRRJ06C-SAHx--34" style="edgeStyle=orthogonalEdgeStyle;rounded=0;orthogonalLoop=1;jettySize=auto;html=1;exitX=0.5;exitY=1;exitDx=0;exitDy=0;" edge="1" parent="1" source="oiIYRZSaRRJ06C-SAHx--7" target="oiIYRZSaRRJ06C-SAHx--33">
          <mxGeometry relative="1" as="geometry" />
        </mxCell>
        <mxCell id="oiIYRZSaRRJ06C-SAHx--7" value="API REST SERVER" style="rounded=1;whiteSpace=wrap;html=1;arcSize=5;fillColor=#b0e3e6;strokeColor=#0e8088;" vertex="1" parent="1">
          <mxGeometry x="204" y="270" width="160" height="50" as="geometry" />
        </mxCell>
        <mxCell id="oiIYRZSaRRJ06C-SAHx--8" value="Event Report Module" style="rounded=1;whiteSpace=wrap;html=1;arcSize=5;fillColor=#d0cee2;strokeColor=#56517e;" vertex="1" parent="1">
          <mxGeometry x="204" y="390" width="160" height="50" as="geometry" />
        </mxCell>
        <mxCell id="oiIYRZSaRRJ06C-SAHx--9" value="Access Server Platform" style="rounded=1;whiteSpace=wrap;html=1;arcSize=5;align=left;verticalAlign=bottom;horizontal=0;fontSize=11;spacingLeft=13;" vertex="1" parent="1">
          <mxGeometry x="504" y="230" width="200" height="230" as="geometry" />
        </mxCell>
        <mxCell id="oiIYRZSaRRJ06C-SAHx--17" value="Event Register Engine" style="rounded=1;whiteSpace=wrap;html=1;arcSize=5;fillColor=#fad9d5;strokeColor=#ae4132;" vertex="1" parent="1">
          <mxGeometry x="524" y="360" width="160" height="80" as="geometry" />
        </mxCell>
        <mxCell id="oiIYRZSaRRJ06C-SAHx--18" value="Local DB" style="image;aspect=fixed;perimeter=ellipsePerimeter;html=1;align=center;shadow=0;dashed=0;spacingTop=3;image=img/lib/active_directory/databases.svg;" vertex="1" parent="1">
          <mxGeometry x="634" y="271" width="50" height="49" as="geometry" />
        </mxCell>
        <mxCell id="oiIYRZSaRRJ06C-SAHx--20" style="edgeStyle=orthogonalEdgeStyle;rounded=0;orthogonalLoop=1;jettySize=auto;html=1;entryX=0;entryY=0.75;entryDx=0;entryDy=0;" edge="1" parent="1" target="oiIYRZSaRRJ06C-SAHx--18">
          <mxGeometry relative="1" as="geometry">
            <mxPoint x="614" y="360" as="sourcePoint" />
            <Array as="points">
              <mxPoint x="614" y="360" />
              <mxPoint x="614" y="306" />
            </Array>
          </mxGeometry>
        </mxCell>
        <mxCell id="oiIYRZSaRRJ06C-SAHx--21" value="Event Dashboard" style="rounded=1;whiteSpace=wrap;html=1;arcSize=5;fillColor=#fad7ac;strokeColor=#b46504;" vertex="1" parent="1">
          <mxGeometry x="525.2" y="270" width="68.8" height="80" as="geometry" />
        </mxCell>
        <mxCell id="oiIYRZSaRRJ06C-SAHx--22" style="edgeStyle=orthogonalEdgeStyle;rounded=0;orthogonalLoop=1;jettySize=auto;html=1;exitX=0;exitY=0.5;exitDx=0;exitDy=0;entryX=0.977;entryY=0.33;entryDx=0;entryDy=0;entryPerimeter=0;" edge="1" parent="1" source="oiIYRZSaRRJ06C-SAHx--18" target="oiIYRZSaRRJ06C-SAHx--21">
          <mxGeometry relative="1" as="geometry" />
        </mxCell>
        <mxCell id="oiIYRZSaRRJ06C-SAHx--25" value="http[s]" style="edgeStyle=orthogonalEdgeStyle;rounded=0;orthogonalLoop=1;jettySize=auto;html=1;exitX=1;exitY=0.5;exitDx=0;exitDy=0;entryX=0.004;entryY=0.683;entryDx=0;entryDy=0;entryPerimeter=0;strokeWidth=2;" edge="1" parent="1" source="oiIYRZSaRRJ06C-SAHx--8" target="oiIYRZSaRRJ06C-SAHx--17">
          <mxGeometry relative="1" as="geometry">
            <Array as="points">
              <mxPoint x="525" y="415" />
            </Array>
          </mxGeometry>
        </mxCell>
        <mxCell id="oiIYRZSaRRJ06C-SAHx--27" value="*SAC: Secured Authenticated Channel" style="text;html=1;align=center;verticalAlign=middle;resizable=0;points=[];autosize=1;strokeColor=none;fillColor=none;" vertex="1" parent="1">
          <mxGeometry x="489" y="510" width="230" height="30" as="geometry" />
        </mxCell>
        <mxCell id="oiIYRZSaRRJ06C-SAHx--24" value="*SAC" style="edgeStyle=orthogonalEdgeStyle;rounded=0;orthogonalLoop=1;jettySize=auto;html=1;entryX=0.5;entryY=0;entryDx=0;entryDy=0;" edge="1" parent="1" source="oiIYRZSaRRJ06C-SAHx--5" target="oiIYRZSaRRJ06C-SAHx--21">
          <mxGeometry x="-0.5529" y="-15" relative="1" as="geometry">
            <mxPoint as="offset" />
          </mxGeometry>
        </mxCell>
        <mxCell id="oiIYRZSaRRJ06C-SAHx--38" style="edgeStyle=orthogonalEdgeStyle;rounded=0;orthogonalLoop=1;jettySize=auto;html=1;entryX=0.5;entryY=0;entryDx=0;entryDy=0;" edge="1" parent="1">
          <mxGeometry relative="1" as="geometry">
            <mxPoint x="283.93671140939597" y="379.99" as="sourcePoint" />
            <mxPoint x="283.93" y="389.99" as="targetPoint" />
          </mxGeometry>
        </mxCell>
        <mxCell id="oiIYRZSaRRJ06C-SAHx--33" value="Access Module" style="rounded=1;whiteSpace=wrap;html=1;arcSize=5;fillColor=#bac8d3;strokeColor=#23445d;" vertex="1" parent="1">
          <mxGeometry x="204" y="330" width="160" height="50" as="geometry" />
        </mxCell>
        <mxCell id="oiIYRZSaRRJ06C-SAHx--15" value="" style="edgeStyle=orthogonalEdgeStyle;rounded=0;orthogonalLoop=1;jettySize=auto;html=1;exitX=0;exitY=0.5;exitDx=0;exitDy=0;" edge="1" parent="1" source="oiIYRZSaRRJ06C-SAHx--33" target="oiIYRZSaRRJ06C-SAHx--4">
          <mxGeometry relative="1" as="geometry" />
        </mxCell>
        <mxCell id="oiIYRZSaRRJ06C-SAHx--42" value="" style="shape=image;verticalLabelPosition=bottom;labelBackgroundColor=default;verticalAlign=top;aspect=fixed;imageAspect=0;image=https://nodered.org/about/resources/media/node-red-icon-2.svg;" vertex="1" parent="1">
          <mxGeometry x="634" y="416" width="24" height="24" as="geometry" />
        </mxCell>
        <mxCell id="oiIYRZSaRRJ06C-SAHx--56" value="" style="shape=image;verticalLabelPosition=bottom;labelBackgroundColor=default;verticalAlign=top;aspect=fixed;imageAspect=0;image=https://www.postgresql.org/media/img/about/press/elephant.png;" vertex="1" parent="1">
          <mxGeometry x="660.73" y="416" width="23.27" height="24" as="geometry" />
        </mxCell>
        <mxCell id="oiIYRZSaRRJ06C-SAHx--57" style="edgeStyle=orthogonalEdgeStyle;rounded=0;orthogonalLoop=1;jettySize=auto;html=1;exitX=0.5;exitY=1;exitDx=0;exitDy=0;" edge="1" parent="1" source="oiIYRZSaRRJ06C-SAHx--17" target="oiIYRZSaRRJ06C-SAHx--17">
          <mxGeometry relative="1" as="geometry" />
        </mxCell>
      </root>
    </mxGraphModel>
  </diagram>
</mxfile>
